# xmcd
#
# Track frame offsets:
#	150
#	17820
#	33497
#	55402
#	85170
#	99650
#	117267
#	136695
#	154770
#	166852
#	186952
#	203522
#	221142
#	237267
#	252797
#
# Disc length: 3668
#
# Revision: 5
# Processed by: cddbd v1.5.1PL0 Copyright (c) Steve Scherf et al.
# Submitted via: CDex 1.50beta10
# Normalized: r4:DSETVAR1
#
DISCID=c60e520f
DTITLE=Various Artist - Cabrio Classics - CD 2
DYEAR=1992
DGENRE=Rock
TTITLE0=The Cars - Drive
TTITLE1=Joe Cocker - Night Calls
TTITLE2=Starship - Sara
TTITLE3=Al Stewart - Year Of The Cat
TTITLE4=Jim Croce - I Got A Name
TTITLE5=Pointer Sister - Slow Hand
TTITLE6=Glenn Frey - Part Of Me, Part Of You
TTITLE7=Sniff'n The Tears - Driver's Seat
TTITLE8=Sutherland Brothers and Quiver - Arms Of Mary
TTITLE9=Gerry Rafferty - Night Owl
TTITLE10=Carole King - Hard Rock Cafe
TTITLE11=Bruce Cockburn - A Dream Like Mine
TTITLE12=Bob Welch - Ebony Eyes
TTITLE13=Kansas - Dust In The Wind
TTITLE14=Toto - Africa
EXTD=YEAR: 1992
EXTT0=
EXTT1=
EXTT2=
EXTT3=
EXTT4=
EXTT5=
EXTT6=
EXTT7=
EXTT8=
EXTT9=
EXTT10=
EXTT11=
EXTT12=
EXTT13=
EXTT14=
PLAYORDER=
